<svg width="43" height="24" viewBox="0 0 43 24" fill="none" xmlns="http://www.w3.org/2000/svg">
<mask id="mask0_16700_93" style="mask-type:alpha" maskUnits="userSpaceOnUse" x="0" y="0" width="43" height="24">
<rect width="43" height="24" fill="#C4C4C4"/>
</mask>
<g mask="url(#mask0_16700_93)">
<path d="M714.783 0C705.142 0 705.142 9.88235 695.567 9.88235C685.992 9.88235 685.925 0 676.35 0C666.776 0 666.709 9.88235 657.134 9.88235C647.492 9.88235 647.492 0 637.85 0C628.209 0 628.209 9.88235 618.634 9.88235C608.992 9.88235 608.992 0 599.417 0C589.776 0 589.776 9.88235 580.201 9.88235C570.626 9.88235 570.358 0 560.783 0C551.142 0 551.142 9.88235 541.567 9.88235C531.992 9.88235 531.858 0 522.283 0C512.642 0 512.642 9.88235 503.067 9.88235C493.425 9.88235 493.425 0 483.783 0C474.142 0 474.142 9.88235 464.567 9.88235C454.925 9.88235 454.925 0 445.35 0C435.776 0 435.642 9.88235 426 9.88235C416.358 9.88235 416.358 0 406.783 0C397.142 0 397.142 9.88235 387.567 9.88235C377.925 9.88235 377.925 0 368.283 0C358.642 0 358.642 9.88235 349.067 9.88235C339.425 9.88235 339.425 0 329.85 0C320.209 0 320.209 9.88235 310.634 9.88235C300.992 9.88235 300.992 0 291.417 0C281.776 0 281.776 9.88235 272.134 9.88235C262.492 9.88235 262.492 0 252.85 0C243.209 0 243.209 9.88235 233.567 9.88235C223.925 9.88235 223.925 0 214.283 0C204.642 0 204.642 9.88235 195 9.88235C185.358 9.88235 185.358 0 175.717 0C166.075 0 166.075 9.88235 156.433 9.88235C146.791 9.88235 146.791 0 137.15 0C127.508 0 127.508 9.88235 117.933 9.88235C108.291 9.88235 108.291 0 98.6496 0C89.0078 0 89.0078 9.88235 79.3661 9.88235C69.7243 9.88235 69.7243 0 60.0826 0C50.4409 0 50.4409 9.88235 40.7991 9.88235C31.1574 9.88235 31.1574 0 21.5157 0C12.1417 0 12.1417 9.88235 2.5 9.88235C-7.14174 9.88235 -7.14174 0 -16.7165 0C-26.2913 0 -26.3583 9.88235 -36 9.88235V24H734V9.88235C724.358 9.88235 724.358 0 714.783 0Z" fill="white"/>
</g>
</svg>
